<svg width="17" height="17" viewBox="0 0 17 17" fill="none" xmlns="http://www.w3.org/2000/svg">
<path fill-rule="evenodd" clip-rule="evenodd" d="M13.4983 8.51489C13.4983 8.6475 13.4456 8.77468 13.3518 8.86845C13.2581 8.96221 13.1309 9.01489 12.9983 9.01489H3.99829C3.86568 9.01489 3.73851 8.96221 3.64474 8.86845C3.55097 8.77468 3.49829 8.6475 3.49829 8.51489C3.49829 8.38228 3.55097 8.25511 3.64474 8.16134C3.73851 8.06757 3.86568 8.01489 3.99829 8.01489H12.9983C13.1309 8.01489 13.2581 8.06757 13.3518 8.16134C13.4456 8.25511 13.4983 8.38228 13.4983 8.51489Z" fill="white"/>
<path fill-rule="evenodd" clip-rule="evenodd" d="M14.3523 8.16079C14.3989 8.20724 14.4358 8.26241 14.461 8.32316C14.4862 8.3839 14.4992 8.44902 14.4992 8.51479C14.4992 8.58056 14.4862 8.64568 14.461 8.70643C14.4358 8.76717 14.3989 8.82235 14.3523 8.86879L11.3523 11.8688C11.2584 11.9627 11.1311 12.0154 10.9983 12.0154C10.8655 12.0154 10.7382 11.9627 10.6443 11.8688C10.5504 11.7749 10.4977 11.6476 10.4977 11.5148C10.4977 11.382 10.5504 11.2547 10.6443 11.1608L13.2913 8.51479L10.6443 5.86879C10.5504 5.77491 10.4977 5.64757 10.4977 5.51479C10.4977 5.38202 10.5504 5.25468 10.6443 5.16079C10.7382 5.06691 10.8655 5.01416 10.9983 5.01416C11.1311 5.01416 11.2584 5.06691 11.3523 5.16079L14.3523 8.16079Z" fill="white"/>
</svg>
