<svg width="56" height="56" viewBox="0 0 56 56" fill="none" xmlns="http://www.w3.org/2000/svg">
<path d="M3.28125 3.28125H15.8602V0H0V15.8602H3.28125V3.28125Z" fill="#F2F0F0"/>
<path d="M40.1398 0V3.28125H52.7188V15.8602H56V0H40.1398Z" fill="#F2F0F0"/>
<path d="M3.28125 40.1398H0V56H15.8602V52.7188H3.28125V40.1398Z" fill="#F2F0F0"/>
<path d="M52.7188 52.7188H40.1398V56H56V40.1398H52.7188V52.7188Z" fill="#F2F0F0"/>
<path d="M36.85 19.2039C34.5006 16.8075 31.3582 15.4698 28.0026 15.4369C27.9603 15.4365 27.9193 15.436 27.877 15.436C21.0068 15.436 15.3834 20.9911 15.3155 27.8762C15.2826 31.2322 16.5584 34.3998 18.9078 36.7962C21.2572 39.1922 24.3992 40.5303 27.7552 40.5632C27.7971 40.5637 27.8385 40.5637 27.8804 40.5637C34.7505 40.5637 40.3744 35.0086 40.4419 28.1235C40.4752 24.7679 39.1994 21.5999 36.85 19.2039ZM27.88 37.2824C27.8492 37.2824 27.818 37.2824 27.7872 37.282C25.3079 37.2576 22.9863 36.269 21.2504 34.4989C19.5145 32.7284 18.572 30.3879 18.5963 27.9082C18.6467 22.7902 22.8547 18.663 27.9701 18.7177C30.4494 18.7421 32.7706 19.7307 34.5065 21.5008C36.2425 23.2717 37.1854 25.6118 37.161 28.0915C37.111 33.1787 32.9561 37.2824 27.88 37.2824Z" fill="#F2F0F0"/>
</svg>
