<svg width="48" height="48" viewBox="0 0 48 48" fill="none" xmlns="http://www.w3.org/2000/svg">
<path d="M2.8125 2.8125H13.5945V0H0V13.5945H2.8125V2.8125Z" fill="#F2F0F0"/>
<path d="M34.4055 0V2.8125H45.1875V13.5945H48V0H34.4055Z" fill="#F2F0F0"/>
<path d="M2.8125 34.4055H0V48H13.5945V45.1875H2.8125V34.4055Z" fill="#F2F0F0"/>
<path d="M45.1875 45.1875H34.4055V48H48V34.4055H45.1875V45.1875Z" fill="#F2F0F0"/>
<path d="M20.1084 24.6527C16.5693 25.8016 14 29.1638 14 33.1224V34H34V33.1224C34 29.1674 31.4354 25.8077 27.9013 24.6559C29.4344 23.4678 30.4252 21.597 30.4252 19.4961C30.4252 15.914 27.5461 13 24.007 13C20.4679 13 17.5888 15.914 17.5888 19.4961C17.5888 21.5952 18.5778 23.4643 20.1084 24.6527V24.6527ZM25.2141 25.9851C28.809 25.9851 31.784 28.722 32.2128 32.2449H15.7872C16.216 28.722 19.1912 25.9851 22.7859 25.9851H25.2141ZM24.007 14.7551C26.5899 14.7551 28.6911 16.8819 28.6911 19.4961C28.6911 22.0248 26.7249 24.0972 24.2585 24.2299H23.7552C21.2891 24.0972 19.3229 22.0248 19.3229 19.4961C19.3229 16.8819 21.4241 14.7551 24.007 14.7551Z" fill="#F2F0F0" stroke="#F2F0F0"/>
</svg>
