<svg width="56" height="56" viewBox="0 0 56 56" fill="none" xmlns="http://www.w3.org/2000/svg">
<path d="M3.28125 3.28125H15.8602V0H0V15.8602H3.28125V3.28125Z" fill="#F2F0F0"/>
<path d="M40.1398 0V3.28125H52.7188V15.8602H56V0H40.1398Z" fill="#F2F0F0"/>
<path d="M3.28125 40.1398H0V56H15.8602V52.7188H3.28125V40.1398Z" fill="#F2F0F0"/>
<path d="M52.7188 52.7188H40.1398V56H56V40.1398H52.7188V52.7188Z" fill="#F2F0F0"/>
<path d="M36.3092 21.5958L40 17.1666L37.3333 13.1666H29.3333L26.6667 17.1666L30.3574 21.5958C25.9163 22.8849 22.6667 26.9762 22.6667 31.8333C22.6667 34.1945 23.4433 36.369 24.7418 38.1361C25.6129 37.8482 26.4007 37.3943 27.0719 36.798C25.9867 35.4324 25.3333 33.709 25.3333 31.8333C25.3333 29.4766 26.3639 27.3613 27.9908 25.8959C29.625 27.36 30.6667 29.4714 30.6667 31.8333C30.6667 36.2445 27.0778 39.8333 22.6667 39.8333C18.2555 39.8333 14.6667 36.2445 14.6667 31.8333C14.6667 27.4221 18.2555 23.8333 22.6667 23.8333C23.2165 23.8333 23.7536 23.8893 24.2728 23.9955C24.9538 23.208 25.7344 22.5122 26.5967 21.9236C25.3792 21.4404 24.056 21.1666 22.6667 21.1666C16.7758 21.1666 12 25.9423 12 31.8333C12 37.7243 16.7758 42.5 22.6667 42.5C24.6136 42.5 26.4329 41.9698 28.0042 41.0586C29.5725 41.9696 31.3887 42.5 33.3333 42.5C39.2243 42.5 44 37.7243 44 31.8333C44 26.9762 40.7503 22.8849 36.3092 21.5958ZM35.1507 20.903L36.0358 18.5H37.153L35.1507 20.903ZM37.1927 15.3595L38.3382 17.0778L38.2644 17.1666H36.5271L37.1927 15.3595ZM36.0895 14.5L35.4401 16.2619L34.4528 14.5H36.0895ZM34.6155 18.5L33.6276 21.1815C33.529 21.1788 33.4326 21.1666 33.3333 21.1666C33.2341 21.1666 33.138 21.1788 33.0398 21.1815L32.0527 18.5H34.6155ZM33.332 15.2278L34.4179 17.1666H32.2388L33.332 15.2278ZM32.2113 14.5L31.2246 16.25L30.5807 14.5H32.2113ZM28.3285 17.0778L29.4753 15.3573L30.1409 17.1666H28.4023L28.3285 17.0778ZM29.5138 18.5H30.6316L31.5161 20.9029L29.5138 18.5ZM33.3333 39.8333C32.2725 39.8333 31.2679 39.6083 30.3418 39.2296C32.1908 37.3115 33.3333 34.7078 33.3333 31.8333C33.3333 28.9498 32.1768 26.3467 30.3161 24.4285C31.248 24.0473 32.2656 23.8333 33.3333 23.8333C37.7445 23.8333 41.3333 27.4221 41.3333 31.8333C41.3333 36.2445 37.7445 39.8333 33.3333 39.8333Z" fill="white"/>
</svg>
