<svg width="48" height="48" viewBox="0 0 48 48" fill="none" xmlns="http://www.w3.org/2000/svg">
<path d="M2.8125 2.8125H13.5945V0H0V13.5945H2.8125V2.8125Z" fill="#F2F0F0"/>
<path d="M34.4055 0V2.8125H45.1875V13.5945H48V0H34.4055Z" fill="#F2F0F0"/>
<path d="M2.8125 34.4055H0V48H13.5945V45.1875H2.8125V34.4055Z" fill="#F2F0F0"/>
<path d="M14 15H17V17H14V15Z" fill="#F2F0F0"/>
<path fill-rule="evenodd" clip-rule="evenodd" d="M24 24.5C23.1716 24.5 22.5 25.1716 22.5 26C22.5 26.8284 23.1716 27.5 24 27.5C24.8284 27.5 25.5 26.8284 25.5 26C25.5 25.1716 24.8284 24.5 24 24.5ZM19.5 26C19.5 23.5147 21.5147 21.5 24 21.5C26.4853 21.5 28.5 23.5147 28.5 26C28.5 28.4853 26.4853 30.5 24 30.5C21.5147 30.5 19.5 28.4853 19.5 26Z" fill="#F2F0F0"/>
<path d="M20 14H28V17H20V14Z" fill="#F2F0F0"/>
<path fill-rule="evenodd" clip-rule="evenodd" d="M34.2143 20H13.7857V32H34.2143V20ZM11 17V35H37V17H11Z" fill="#F2F0F0"/>
<path d="M45.1875 45.1875H34.4055V48H48V34.4055H45.1875V45.1875Z" fill="#F2F0F0"/>
</svg>
