<svg width="56" height="56" viewBox="0 0 56 56" fill="none" xmlns="http://www.w3.org/2000/svg">
<path d="M3.28125 3.28125H15.8602V0H0V15.8602H3.28125V3.28125Z" fill="#F2F0F0"/>
<path d="M40.1398 0V3.28125H52.7188V15.8602H56V0H40.1398Z" fill="#F2F0F0"/>
<path d="M3.28125 40.1396H0V55.9999H15.8602V52.7186H3.28125V40.1396Z" fill="#F2F0F0"/>
<path d="M52.7188 52.7186H40.1398V55.9999H56V40.1396H52.7188V52.7186Z" fill="#F2F0F0"/>
<path d="M40.5633 26.6231L38.3669 24.6218V17.9856C38.3669 17.5633 38.0246 17.2209 37.6023 17.2209H32.3152C31.8929 17.2209 31.5506 17.5633 31.5506 17.9856V18.4108L28.898 15.9938C28.3859 15.5271 27.6138 15.5272 27.102 15.9937L15.4366 26.6232C15.0265 26.9969 14.891 27.5728 15.0913 28.0902C15.2918 28.6076 15.7798 28.9419 16.3347 28.9419H18.1978V39.5918C18.1978 40.0141 18.5401 40.3564 18.9624 40.3564H25.3564C25.7787 40.3564 26.121 40.0141 26.121 39.5918V33.1255H29.8789V39.5919C29.8789 40.0141 30.2212 40.3565 30.6435 40.3565H37.0373C37.4595 40.3565 37.8019 40.0142 37.8018 39.5919V28.942H39.6654C40.2202 28.942 40.7082 28.6076 40.9087 28.0903C41.109 27.5728 40.9735 26.9969 40.5633 26.6231ZM37.0373 27.4127C36.615 27.4127 36.2727 27.7551 36.2727 28.1773V38.8272H31.4082V32.3609C31.4082 31.9387 31.0658 31.5963 30.6436 31.5963H25.3564C24.9342 31.5963 24.5918 31.9386 24.5918 32.3609V38.8272H19.727V28.1773C19.727 27.7551 19.3846 27.4127 18.9624 27.4127H16.8406L28 17.2443L31.8003 20.7071C32.0241 20.9111 32.3473 20.9636 32.6242 20.8414C32.9011 20.719 33.0798 20.4447 33.0798 20.1419V18.7502H36.8378V24.9595C36.8378 25.1747 36.9283 25.3798 37.0874 25.5247L39.1594 27.4127H37.0373Z" fill="white" stroke="white"/>
</svg>
