<svg viewBox="0 0 56 56" fill="none" xmlns="http://www.w3.org/2000/svg">
<path d="M3.28125 3.28125H15.8602V0H0V15.8602H3.28125V3.28125Z" fill="#F2F0F0"/>
<path d="M40.1398 0V3.28125H52.7188V15.8602H56V0H40.1398Z" fill="#F2F0F0"/>
<path d="M3.28125 40.1398H0V56H15.8602V52.7188H3.28125V40.1398Z" fill="#F2F0F0"/>
<path d="M52.7188 52.7188H40.1398V56H56V40.1398H52.7188V52.7188Z" fill="#F2F0F0"/>
<path d="M36.85 19.2039C34.5006 16.8074 31.3582 15.4697 28.0026 15.4368C27.9603 15.4364 27.9193 15.436 27.877 15.436C21.0068 15.436 15.3834 20.991 15.3155 27.8761C15.2826 31.2321 16.5583 34.3997 18.9078 36.7961C21.2572 39.1921 24.3992 40.5303 27.7552 40.5632C27.7971 40.5636 27.8385 40.5636 27.8804 40.5636C34.7505 40.5636 40.3743 35.0085 40.4418 28.1235C40.4752 24.7679 39.1994 21.5999 36.85 19.2039ZM27.8799 37.2823C27.8492 37.2823 27.818 37.2823 27.7872 37.2819C25.3079 37.2576 22.9863 36.2689 21.2504 34.4988C19.5145 32.7283 18.572 30.3879 18.5963 27.9081C18.6467 22.7902 22.8547 18.663 27.9701 18.7177C30.4494 18.742 32.7706 19.7307 34.5065 21.5007C36.2424 23.2717 37.1854 25.6117 37.161 28.0914C37.111 33.1786 32.9561 37.2823 27.8799 37.2823Z" fill="#F2F0F0"/>
</svg>
