<svg width="40" height="40" viewBox="0 0 40 40" fill="none" xmlns="http://www.w3.org/2000/svg">
<path d="M13.4861 14H15.4777L19.8774 25.0547L21 25.215V26H16.2201V25.215L17.7228 25.0547L16.8719 22.6836H11.585L10.734 25.0547L12.2911 25.215V26H8V25.215L9.12256 25.0547L13.4861 14ZM14.6267 16.5634L14.1741 15.1535L13.7396 16.5955L11.9109 21.7383H16.5279L14.6267 16.5634Z" fill="#F2F0F0"/>
<path d="M27.3851 20.7187C26.9503 20.9341 26.3913 21.1009 25.7081 21.2194C25.0248 21.3378 24.3789 21.397 23.7702 21.397C22.9006 21.397 22.1988 21.284 21.6646 21.0579C21.1429 20.8318 20.7578 20.4549 20.5093 19.9273C20.2609 19.389 20.1366 18.6568 20.1366 17.7308V15.0175L19 14.8237V14H23.6957V14.8237L22.1118 15.0175V17.2463C22.1118 18.2046 22.1801 18.8937 22.3168 19.3136C22.4658 19.7335 22.7081 20.0081 23.0435 20.1373C23.3789 20.2557 23.9193 20.3149 24.6646 20.3149C25.1366 20.3149 25.6398 20.2611 26.1739 20.1534C26.7205 20.0458 27.1242 19.9273 27.3851 19.7981V15.0013L25.7267 14.8075V14H31V14.8075L29.3602 15.0013V25.0471L31 25.2248V26H25.4286V25.2086L27.3851 25.0471V20.7187Z" fill="#F2F0F0"/>
<path fill-rule="evenodd" clip-rule="evenodd" d="M20 38.2667C30.0884 38.2667 38.2667 30.0884 38.2667 20C38.2667 9.9116 30.0884 1.73333 20 1.73333C9.9116 1.73333 1.73333 9.9116 1.73333 20C1.73333 30.0884 9.9116 38.2667 20 38.2667ZM20 40C31.0457 40 40 31.0457 40 20C40 8.95431 31.0457 0 20 0C8.95431 0 0 8.95431 0 20C0 31.0457 8.95431 40 20 40Z" fill="#F2F0F0"/>
</svg>
