<svg width="48" height="48" viewBox="0 0 48 48" fill="none" xmlns="http://www.w3.org/2000/svg">
<path d="M2.8125 2.8125H13.5945V0H0V13.5945H2.8125V2.8125Z" fill="#F2F0F0"/>
<path d="M34.4055 0V2.8125H45.1875V13.5945H48V0H34.4055Z" fill="#F2F0F0"/>
<path d="M2.8125 34.4055H0V48H13.5945V45.1875H2.8125V34.4055Z" fill="#F2F0F0"/>
<path d="M45.1875 45.1875H34.4055V48H48V34.4055H45.1875V45.1875Z" fill="#F2F0F0"/>
<path fill-rule="evenodd" clip-rule="evenodd" d="M24 20.5C22.067 20.5 20.5 22.067 20.5 24C20.5 25.933 22.067 27.5 24 27.5C25.933 27.5 27.5 25.933 27.5 24C27.5 22.067 25.933 20.5 24 20.5ZM17.5 24C17.5 20.4101 20.4101 17.5 24 17.5C27.5899 17.5 30.5 20.4101 30.5 24C30.5 27.5899 27.5899 30.5 24 30.5C20.4101 30.5 17.5 27.5899 17.5 24Z" fill="#F2F0F0"/>
<path fill-rule="evenodd" clip-rule="evenodd" d="M21 11.8623C15.5454 13.206 11.5 18.1306 11.5 24C11.5 29.8694 15.5454 34.794 21 36.1377V33.0166C17.2234 31.7607 14.5 28.1984 14.5 24C14.5 19.8016 17.2234 16.2393 21 14.9834V11.8623ZM27 33.0166C30.7766 31.7607 33.5 28.1984 33.5 24C33.5 19.8016 30.7766 16.2393 27 14.9834V11.8623C32.4546 13.206 36.5 18.1306 36.5 24C36.5 29.8694 32.4546 34.794 27 36.1377V33.0166Z" fill="#F2F0F0"/>
</svg>
