<svg viewBox="0 0 56 56" fill="none" xmlns="http://www.w3.org/2000/svg">
<path d="M3.28125 3.28125H15.8602V0H0V15.8602H3.28125V3.28125Z" fill="#F2F0F0"/>
<path d="M40.1398 0V3.28125H52.7188V15.8602H56V0H40.1398Z" fill="#F2F0F0"/>
<path d="M3.28125 40.1398H0V56H15.8602V52.7188H3.28125V40.1398Z" fill="#F2F0F0"/>
<path d="M52.7188 52.7188H40.1398V56H56V40.1398H52.7188V52.7188Z" fill="#F2F0F0"/>
<path d="M36.3092 21.4292L40 17L37.3333 13H29.3333L26.6667 17L30.3574 21.4292C25.9163 22.7182 22.6667 26.8096 22.6667 31.6667C22.6667 34.0278 23.4433 36.2024 24.7418 37.9695C25.6129 37.6816 26.4007 37.2277 27.0719 36.6314C25.9867 35.2657 25.3333 33.5424 25.3333 31.6667C25.3333 29.31 26.3639 27.1947 27.9908 25.7292C29.625 27.1934 30.6667 29.3047 30.6667 31.6667C30.6667 36.0778 27.0778 39.6667 22.6667 39.6667C18.2555 39.6667 14.6667 36.0778 14.6667 31.6667C14.6667 27.2555 18.2555 23.6667 22.6667 23.6667C23.2165 23.6667 23.7536 23.7227 24.2728 23.8288C24.9538 23.0413 25.7344 22.3456 26.5967 21.757C25.3792 21.2737 24.056 21 22.6667 21C16.7758 21 12 25.7757 12 31.6667C12 37.5577 16.7758 42.3333 22.6667 42.3333C24.6136 42.3333 26.4329 41.8032 28.0042 40.892C29.5725 41.803 31.3887 42.3333 33.3333 42.3333C39.2243 42.3333 44 37.5577 44 31.6667C44 26.8096 40.7503 22.7182 36.3092 21.4292ZM35.1507 20.7363L36.0358 18.3333H37.153L35.1507 20.7363ZM37.1927 15.1928L38.3382 16.9112L38.2644 17H36.5271L37.1927 15.1928ZM36.0895 14.3333L35.4401 16.0952L34.4528 14.3333H36.0895ZM34.6155 18.3333L33.6276 21.0148C33.529 21.0122 33.4326 21 33.3333 21C33.2341 21 33.138 21.0122 33.0398 21.0148L32.0527 18.3333H34.6155ZM33.332 15.0612L34.4179 17H32.2388L33.332 15.0612ZM32.2113 14.3333L31.2246 16.0834L30.5807 14.3333H32.2113ZM28.3285 16.9112L29.4753 15.1907L30.1409 17H28.4023L28.3285 16.9112ZM29.5138 18.3333H30.6316L31.5161 20.7362L29.5138 18.3333ZM33.3333 39.6667C32.2725 39.6667 31.2679 39.4417 30.3418 39.063C32.1908 37.1448 33.3333 34.5412 33.3333 31.6667C33.3333 28.7832 32.1768 26.1801 30.3161 24.2618C31.248 23.8807 32.2656 23.6667 33.3333 23.6667C37.7445 23.6667 41.3333 27.2555 41.3333 31.6667C41.3333 36.0778 37.7445 39.6667 33.3333 39.6667Z" fill="#F2F0F0"/>
</svg>
